<?xml version="1.0" standalone="no"?>
<!DOCTYPE svg PUBLIC "-//W3C//DTD SVG 20010904//EN"
 "http://www.w3.org/TR/2001/REC-SVG-20010904/DTD/svg10.dtd">
<svg version="1.0" xmlns="http://www.w3.org/2000/svg"
 width="225.000000pt" height="300.000000pt" viewBox="0 0 225.000000 300.000000"
 preserveAspectRatio="xMidYMid meet">

<g transform="translate(0.000000,300.000000) scale(0.100000,-0.100000)"
fill="#000000" stroke="none">
<path d="M810 2993 c-26 -10 -132 -102 -213 -187 -72 -74 -155 -193 -171 -244
-4 -11 -14 -26 -22 -33 -13 -11 -14 -9 -8 17 4 16 12 40 19 54 16 31 23 69 13
69 -23 1 -44 -19 -102 -97 -58 -80 -79 -114 -143 -235 -51 -97 -93 -285 -94
-422 -1 -44 -5 -84 -9 -90 -9 -12 4 -130 18 -166 15 -38 4 -43 -31 -13 -44 37
-62 29 -61 -27 2 -32 13 -67 38 -113 20 -36 36 -68 36 -71 0 -2 -14 0 -31 5
-18 5 -36 7 -40 4 -25 -15 37 -132 109 -206 l46 -48 -41 0 c-80 0 -77 -43 7
-111 41 -33 50 -49 27 -49 -7 0 -22 -6 -32 -14 -19 -14 -19 -14 0 -36 11 -12
39 -31 64 -42 l44 -20 -37 -30 c-27 -22 -34 -34 -27 -41 18 -18 93 -37 149
-37 28 0 52 -3 52 -6 0 -4 -9 -22 -21 -41 -17 -27 -19 -36 -9 -48 16 -19 79
-19 104 0 33 25 39 17 12 -16 -31 -36 -32 -45 -8 -57 24 -13 52 -9 98 14 l41
20 -10 -27 c-20 -52 15 -84 62 -56 l26 15 -3 -39 c-7 -66 31 -88 82 -48 l26
20 0 -31 c0 -40 21 -48 59 -21 l29 21 5 -27 c3 -18 -1 -36 -14 -51 -26 -34
-89 -169 -89 -192 0 -32 60 -90 130 -125 37 -19 70 -31 74 -28 3 4 6 -3 6 -13
0 -30 50 -70 86 -69 40 1 64 20 65 54 l2 26 4 -25 c7 -38 28 -56 67 -55 41 1
86 37 86 68 0 11 3 18 6 14 4 -3 37 9 74 28 70 35 130 93 130 125 0 23 -63
158 -89 192 -13 15 -17 33 -14 51 l5 27 29 -21 c38 -27 59 -19 59 21 l0 31 26
-20 c51 -40 89 -18 82 48 l-3 39 26 -15 c47 -28 82 4 62 56 l-10 27 41 -20
c46 -23 74 -27 99 -14 23 12 22 21 -9 57 -27 33 -21 41 12 16 25 -19 88 -19
104 0 10 12 8 21 -9 48 -12 19 -21 37 -21 41 0 3 24 6 53 6 55 0 130 19 148
37 7 7 0 19 -27 41 l-37 30 44 20 c25 11 53 30 64 42 19 22 19 22 0 36 -10 8
-25 14 -32 14 -23 0 -14 16 27 49 84 68 87 111 7 111 l-41 0 46 47 c72 75 134
192 109 207 -4 3 -22 1 -40 -4 -17 -5 -31 -7 -31 -5 0 3 16 35 36 71 25 46 36
81 38 113 1 56 -17 64 -61 27 -35 -30 -46 -25 -31 13 14 36 27 154 18 166 -4
6 -8 46 -9 90 -1 137 -43 325 -94 422 -64 121 -85 155 -143 235 -59 79 -81
100 -102 96 -9 -1 -3 -37 13 -68 7 -14 15 -38 19 -54 6 -26 5 -28 -8 -17 -8 7
-18 22 -22 33 -27 85 -169 258 -309 376 -97 81 -157 82 -87 1 54 -63 132 -166
132 -176 0 -4 10 -18 23 -29 12 -12 28 -39 36 -60 7 -22 26 -66 41 -99 15 -33
36 -87 48 -120 11 -33 32 -91 47 -129 29 -78 55 -190 55 -240 0 -17 5 -37 11
-43 14 -14 -3 -185 -27 -277 -16 -62 -72 -188 -96 -217 -7 -9 -25 -19 -40 -22
-42 -11 -85 -53 -144 -144 -31 -46 -68 -95 -82 -108 -53 -49 -139 -45 -170 8
-22 36 -29 88 -42 297 -10 153 -26 219 -70 279 l-24 34 -25 -32 c-43 -57 -61
-126 -71 -281 -17 -280 -30 -323 -95 -336 -78 -14 -114 11 -199 139 -59 91
-102 133 -144 144 -15 3 -33 13 -40 22 -24 29 -80 155 -96 217 -24 92 -41 263
-27 277 6 6 11 26 11 43 0 50 26 162 55 240 15 38 36 96 47 129 12 33 33 87
48 120 15 33 34 77 41 99 8 21 24 48 36 60 13 11 23 25 23 29 0 10 78 113 132
176 45 52 40 73 -12 54z"/>
</g>
</svg>
